<?xml version="1.0"?>
<svg version="1.1" id="topsvg"
xmlns="http://www.w3.org/2000/svg" xmlns:xlink="http://www.w3.org/1999/xlink"
xmlns:cml="http://www.xml-cml.org/schema" x="0" y="0" width="200px" height="200px" viewBox="0 0 100 100">
<title>8e856cd04e09009b50ad01419b8898ff - Open Babel Depiction</title>
<rect x="0" y="0" width="100" height="100" fill="white"/>
<g transform="translate(0,0)">
<svg width="100" height="100" x="0" y="0" viewBox="0 0 229.282 234.641"
font-family="sans-serif" stroke="rgb(0,0,0)" stroke-width="2"  stroke-linecap="round">
<line x1="149.3" y1="74.6" x2="176.3" y2="74.6" opacity="1.0" stroke="rgb(0,0,0)"  stroke-width="2.0"/>
<line x1="80.0" y1="114.6" x2="53.0" y2="114.6" opacity="1.0" stroke="rgb(0,0,0)"  stroke-width="2.0"/>
<line x1="125.9" y1="61.1" x2="149.3" y2="74.6" opacity="1.0" stroke="rgb(0,0,0)"  stroke-width="2.0"/>
<line x1="80.0" y1="114.6" x2="66.5" y2="138.0" opacity="1.0" stroke="rgb(0,0,0)"  stroke-width="2.0"/>
<line x1="149.3" y1="74.6" x2="162.8" y2="51.3" opacity="1.0" stroke="rgb(0,0,0)"  stroke-width="2.0"/>
<line x1="114.6" y1="134.6" x2="80.0" y2="114.6" opacity="1.0" stroke="rgb(0,0,0)"  stroke-width="2.0"/>
<line x1="149.3" y1="74.6" x2="149.3" y2="114.6" opacity="1.0" stroke="rgb(0,0,0)"  stroke-width="2.0"/>
<line x1="80.0" y1="114.6" x2="80.0" y2="87.6" opacity="1.0" stroke="rgb(0,0,0)"  stroke-width="2.0"/>
<line x1="183.9" y1="134.6" x2="183.9" y2="174.6" opacity="1.0" stroke="rgb(0,0,0)"  stroke-width="2.0"/>
<line x1="183.9" y1="174.6" x2="149.3" y2="194.6" opacity="1.0" stroke="rgb(0,0,0)"  stroke-width="2.0"/>
<line x1="175.1" y1="171.4" x2="150.9" y2="185.4" opacity="1.0" stroke="rgb(0,0,0)"  stroke-width="2.0"/>
<line x1="149.3" y1="194.6" x2="114.6" y2="174.6" opacity="1.0" stroke="rgb(0,0,0)"  stroke-width="2.0"/>
<line x1="114.6" y1="174.6" x2="114.6" y2="134.6" opacity="1.0" stroke="rgb(0,0,0)"  stroke-width="2.0"/>
<line x1="121.8" y1="168.6" x2="121.8" y2="140.6" opacity="1.0" stroke="rgb(0,0,0)"  stroke-width="2.0"/>
<line x1="114.6" y1="134.6" x2="149.3" y2="114.6" opacity="1.0" stroke="rgb(0,0,0)"  stroke-width="2.0"/>
<line x1="149.3" y1="114.6" x2="183.9" y2="134.6" opacity="1.0" stroke="rgb(0,0,0)"  stroke-width="2.0"/>
<line x1="150.9" y1="123.9" x2="175.1" y2="137.9" opacity="1.0" stroke="rgb(0,0,0)"  stroke-width="2.0"/>
<text x="108.641016" y="62.641016" fill="rgb(127,178,255)"  stroke="rgb(127,178,255)" stroke-width="1" font-size="16" >F</text>
<text x="163.282032" y="48.000000" fill="rgb(127,178,255)"  stroke="rgb(127,178,255)" stroke-width="1" font-size="16" >F</text>
<text x="183.282032" y="82.641016" fill="rgb(127,178,255)"  stroke="rgb(127,178,255)" stroke-width="1" font-size="16" >F</text>
<text x="54.000000" y="157.282032" fill="rgb(127,178,255)"  stroke="rgb(127,178,255)" stroke-width="1" font-size="16" >F</text>
<text x="74.000000" y="82.641016" fill="rgb(127,178,255)"  stroke="rgb(127,178,255)" stroke-width="1" font-size="16" >F</text>
<text x="34.000000" y="122.641016" fill="rgb(127,178,255)"  stroke="rgb(127,178,255)" stroke-width="1" font-size="16" >F</text>
</svg>
</g>
</svg>