<?xml version="1.0"?>
<svg version="1.1" id="topsvg"
xmlns="http://www.w3.org/2000/svg" xmlns:xlink="http://www.w3.org/1999/xlink"
xmlns:cml="http://www.xml-cml.org/schema" x="0" y="0" width="200px" height="200px" viewBox="0 0 100 100">
<title>5a1c996957fdfc8a56039e5d7a2d3654 - Open Babel Depiction</title>
<rect x="0" y="0" width="100" height="100" fill="white"/>
<g transform="translate(0,0)">
<svg width="100" height="100" x="0" y="0" viewBox="0 0 241.172 219.134"
font-family="sans-serif" stroke="rgb(0,0,0)" stroke-width="2"  stroke-linecap="round">
<line x1="188.2" y1="109.1" x2="161.2" y2="109.1" opacity="1.0" stroke="rgb(0,0,0)"  stroke-width="2.0"/>
<line x1="110.7" y1="127.2" x2="84.1" y2="142.5" opacity="1.0" stroke="rgb(0,0,0)"  stroke-width="2.0"/>
<line x1="142.9" y1="69.7" x2="144.3" y2="70.5" opacity="1.0" stroke="rgb(0,0,0)"  stroke-width="1.0"/>
<line x1="144.5" y1="65.6" x2="147.0" y2="67.1" opacity="1.0" stroke="rgb(0,0,0)"  stroke-width="1.0"/>
<line x1="146.1" y1="61.6" x2="149.7" y2="63.7" opacity="1.0" stroke="rgb(0,0,0)"  stroke-width="1.0"/>
<line x1="147.7" y1="57.5" x2="152.4" y2="60.2" opacity="1.0" stroke="rgb(0,0,0)"  stroke-width="1.0"/>
<line x1="149.2" y1="53.5" x2="155.1" y2="56.8" opacity="1.0" stroke="rgb(0,0,0)"  stroke-width="1.0"/>
<line x1="150.8" y1="49.5" x2="157.8" y2="53.4" opacity="1.0" stroke="rgb(0,0,0)"  stroke-width="1.0"/>
<polygon points="60.201390 144.634353 36.550049 112.230261 43.449951 108.181638 " stroke-width="2.000000" fill="rgb(0,0,0)"  stroke="rgb(0,0,0)" />
<line x1="110.7" y1="92.2" x2="84.1" y2="76.9" opacity="1.0" stroke="rgb(0,0,0)"  stroke-width="2.0"/>
<line x1="94.9" y1="93.8" x2="94.1" y2="95.2" opacity="1.0" stroke="rgb(0,0,0)"  stroke-width="1.0"/>
<line x1="98.5" y1="95.2" x2="97.1" y2="97.7" opacity="1.0" stroke="rgb(0,0,0)"  stroke-width="1.0"/>
<line x1="102.1" y1="96.5" x2="100.0" y2="100.1" opacity="1.0" stroke="rgb(0,0,0)"  stroke-width="1.0"/>
<line x1="105.6" y1="97.8" x2="102.9" y2="102.5" opacity="1.0" stroke="rgb(0,0,0)"  stroke-width="1.0"/>
<line x1="109.2" y1="99.1" x2="105.8" y2="104.9" opacity="1.0" stroke="rgb(0,0,0)"  stroke-width="1.0"/>
<line x1="112.8" y1="100.4" x2="108.8" y2="107.4" opacity="1.0" stroke="rgb(0,0,0)"  stroke-width="1.0"/>
<line x1="161.2" y1="109.1" x2="174.8" y2="132.4" opacity="1.0" stroke="rgb(0,0,0)"  stroke-width="2.0"/>
<polygon points="60.201390 74.711126 43.476400 112.184495 36.523600 108.227404 " stroke-width="2.000000" fill="rgb(0,0,0)"  stroke="rgb(0,0,0)" />
<polygon points="100.579933 74.711126 140.970594 70.711126 140.970594 78.711126 " stroke-width="2.000000" fill="rgb(0,0,0)"  stroke="rgb(0,0,0)" />
<polygon points="100.579933 144.634353 140.970594 140.634353 140.970594 148.634353 " stroke-width="2.000000" fill="rgb(0,0,0)"  stroke="rgb(0,0,0)" />
<polygon points="110.692948 92.191933 138.970594 71.247025 142.970594 78.175228 " stroke-width="2.000000" fill="rgb(0,0,0)"  stroke="rgb(0,0,0)" />
<line x1="94.1" y1="124.1" x2="94.9" y2="125.5" opacity="1.0" stroke="rgb(0,0,0)"  stroke-width="1.0"/>
<line x1="97.1" y1="121.7" x2="98.5" y2="124.2" opacity="1.0" stroke="rgb(0,0,0)"  stroke-width="1.0"/>
<line x1="100.0" y1="119.3" x2="102.1" y2="122.9" opacity="1.0" stroke="rgb(0,0,0)"  stroke-width="1.0"/>
<line x1="102.9" y1="116.8" x2="105.6" y2="121.5" opacity="1.0" stroke="rgb(0,0,0)"  stroke-width="1.0"/>
<line x1="105.8" y1="114.4" x2="109.2" y2="120.2" opacity="1.0" stroke="rgb(0,0,0)"  stroke-width="1.0"/>
<line x1="108.8" y1="112.0" x2="112.8" y2="118.9" opacity="1.0" stroke="rgb(0,0,0)"  stroke-width="1.0"/>
<polygon points="110.692948 127.153546 142.970594 141.170251 138.970594 148.098455 " stroke-width="2.000000" fill="rgb(0,0,0)"  stroke="rgb(0,0,0)" />
<line x1="144.4" y1="148.9" x2="143.0" y2="149.7" opacity="1.0" stroke="rgb(0,0,0)"  stroke-width="1.0"/>
<line x1="147.1" y1="152.2" x2="144.6" y2="153.7" opacity="1.0" stroke="rgb(0,0,0)"  stroke-width="1.0"/>
<line x1="149.8" y1="155.6" x2="146.2" y2="157.7" opacity="1.0" stroke="rgb(0,0,0)"  stroke-width="1.0"/>
<line x1="152.5" y1="159.0" x2="147.8" y2="161.7" opacity="1.0" stroke="rgb(0,0,0)"  stroke-width="1.0"/>
<line x1="155.3" y1="162.4" x2="149.5" y2="165.8" opacity="1.0" stroke="rgb(0,0,0)"  stroke-width="1.0"/>
<line x1="158.0" y1="165.7" x2="151.1" y2="169.8" opacity="1.0" stroke="rgb(0,0,0)"  stroke-width="1.0"/>
<line x1="109.5" y1="116.2" x2="90.5" y2="127.2" opacity="1.0" stroke="rgb(0,0,0)"  stroke-width="2.0"/>
<line x1="90.5" y1="127.2" x2="90.5" y2="92.2" opacity="1.0" stroke="rgb(0,0,0)"  stroke-width="2.0"/>
<line x1="90.5" y1="92.2" x2="109.5" y2="103.2" opacity="1.0" stroke="rgb(0,0,0)"  stroke-width="2.0"/>
<line x1="161.2" y1="109.1" x2="141.0" y2="144.6" opacity="1.0" stroke="rgb(0,0,0)"  stroke-width="2.0"/>
<line x1="141.0" y1="144.6" x2="100.6" y2="144.6" opacity="1.0" stroke="rgb(0,0,0)"  stroke-width="2.0"/>
<line x1="100.6" y1="144.6" x2="100.6" y2="74.7" opacity="1.0" stroke="rgb(0,0,0)"  stroke-width="2.0"/>
<line x1="100.6" y1="74.7" x2="141.0" y2="74.7" opacity="1.0" stroke="rgb(0,0,0)"  stroke-width="2.0"/>
<line x1="141.0" y1="74.7" x2="161.2" y2="109.1" opacity="1.0" stroke="rgb(0,0,0)"  stroke-width="2.0"/>
<line x1="100.6" y1="144.6" x2="60.2" y2="144.6" opacity="1.0" stroke="rgb(0,0,0)"  stroke-width="2.0"/>
<line x1="60.2" y1="144.6" x2="40.0" y2="110.2" opacity="1.0" stroke="rgb(0,0,0)"  stroke-width="2.0"/>
<line x1="40.0" y1="110.2" x2="60.2" y2="74.7" opacity="1.0" stroke="rgb(0,0,0)"  stroke-width="2.0"/>
<line x1="60.2" y1="74.7" x2="100.6" y2="74.7" opacity="1.0" stroke="rgb(0,0,0)"  stroke-width="2.0"/>
<line x1="90.5" y1="127.2" x2="60.2" y2="144.6" opacity="1.0" stroke="rgb(0,0,0)"  stroke-width="2.0"/>
<line x1="60.2" y1="74.7" x2="90.5" y2="92.2" opacity="1.0" stroke="rgb(0,0,0)"  stroke-width="2.0"/>
<line x1="141.0" y1="144.6" x2="110.7" y2="127.2" opacity="1.0" stroke="rgb(0,0,0)"  stroke-width="2.0"/>
<line x1="110.7" y1="127.2" x2="110.7" y2="92.2" opacity="1.0" stroke="rgb(0,0,0)"  stroke-width="2.0"/>
<line x1="110.7" y1="92.2" x2="141.0" y2="74.7" opacity="1.0" stroke="rgb(0,0,0)"  stroke-width="2.0"/>
<text x="54.878572" y="78.359792" fill="rgb(30,239,30)"  stroke="rgb(30,239,30)" stroke-width="1" font-size="16" >Cl</text>
<text x="154.848665" y="48.000000" fill="rgb(30,239,30)"  stroke="rgb(30,239,30)" stroke-width="1" font-size="16" >Cl</text>
<text x="114.756680" y="117.672740" fill="rgb(255,12,12)"  stroke="rgb(255,12,12)" stroke-width="1" font-size="16" >O</text>
<text x="195.171983" y="117.139529" fill="rgb(30,239,30)"  stroke="rgb(30,239,30)" stroke-width="1" font-size="16" >Cl</text>
<text x="54.878572" y="156.985687" fill="rgb(30,239,30)"  stroke="rgb(30,239,30)" stroke-width="1" font-size="16" >Cl</text>
<text x="155.213708" y="187.133865" fill="rgb(30,239,30)"  stroke="rgb(30,239,30)" stroke-width="1" font-size="16" >Cl</text>
<text x="175.415097" y="151.639042" fill="rgb(30,239,30)"  stroke="rgb(30,239,30)" stroke-width="1" font-size="16" >Cl</text>
</svg>
</g>
</svg>