<?xml version="1.0"?>
<svg version="1.1" id="topsvg"
xmlns="http://www.w3.org/2000/svg" xmlns:xlink="http://www.w3.org/1999/xlink"
xmlns:cml="http://www.xml-cml.org/schema" x="0" y="0" width="200px" height="200px" viewBox="0 0 100 100">
<title>97678306d111b99b5d2c45ab1284d5f9 - Open Babel Depiction</title>
<rect x="0" y="0" width="100" height="100" fill="white"/>
<g transform="translate(0,0)">
<svg width="100" height="100" x="0" y="0" viewBox="0 0 183.923 220"
font-family="sans-serif" stroke="rgb(0,0,0)" stroke-width="2"  stroke-linecap="round">
<line x1="109.3" y1="100.0" x2="109.3" y2="73.0" opacity="1.0" stroke="rgb(0,0,0)"  stroke-width="2.0"/>
<line x1="132.7" y1="46.5" x2="120.5" y2="53.5" opacity="1.0" stroke="rgb(0,0,0)"  stroke-width="2.0"/>
<line x1="74.6" y1="160.0" x2="51.3" y2="173.5" opacity="1.0" stroke="rgb(0,0,0)"  stroke-width="2.0"/>
<line x1="74.6" y1="160.0" x2="109.3" y2="180.0" opacity="1.0" stroke="rgb(0,0,0)"  stroke-width="2.0"/>
<line x1="109.3" y1="180.0" x2="143.9" y2="160.0" opacity="1.0" stroke="rgb(0,0,0)"  stroke-width="2.0"/>
<line x1="110.9" y1="170.8" x2="135.1" y2="156.8" opacity="1.0" stroke="rgb(0,0,0)"  stroke-width="2.0"/>
<line x1="143.9" y1="160.0" x2="143.9" y2="120.0" opacity="1.0" stroke="rgb(0,0,0)"  stroke-width="2.0"/>
<line x1="143.9" y1="120.0" x2="109.3" y2="100.0" opacity="1.0" stroke="rgb(0,0,0)"  stroke-width="2.0"/>
<line x1="135.1" y1="123.2" x2="110.9" y2="109.2" opacity="1.0" stroke="rgb(0,0,0)"  stroke-width="2.0"/>
<line x1="109.3" y1="100.0" x2="74.6" y2="120.0" opacity="1.0" stroke="rgb(0,0,0)"  stroke-width="2.0"/>
<line x1="74.6" y1="120.0" x2="74.6" y2="160.0" opacity="1.0" stroke="rgb(0,0,0)"  stroke-width="2.0"/>
<line x1="81.8" y1="126.0" x2="81.8" y2="154.0" opacity="1.0" stroke="rgb(0,0,0)"  stroke-width="2.0"/>
<text x="22.000000" y="188.000000" fill="rgb(30,239,30)"  stroke="rgb(30,239,30)" stroke-width="1" font-size="16" >Cl</text>
<text x="103.282032" y="68.000000" fill="rgb(255,12,12)"  stroke="rgb(255,12,12)" stroke-width="1" font-size="16" >O</text>
<text x="137.923048" y="48.000000" fill="rgb(191,191,191)"  stroke="rgb(191,191,191)" stroke-width="1" font-size="16" >H</text>
</svg>
</g>
</svg>