<?xml version="1.0"?>
<svg version="1.1" id="topsvg"
xmlns="http://www.w3.org/2000/svg" xmlns:xlink="http://www.w3.org/1999/xlink"
xmlns:cml="http://www.xml-cml.org/schema" x="0" y="0" width="200px" height="200px" viewBox="0 0 100 100">
<title>74a707c52ab64d9cf1d5bf3a6c2c627e - Open Babel Depiction</title>
<rect x="0" y="0" width="100" height="100" fill="white"/>
<g transform="translate(0,0)">
<svg width="100" height="100" x="0" y="0" viewBox="0 0 236.73 216.335"
font-family="sans-serif" stroke="rgb(0,0,0)" stroke-width="2"  stroke-linecap="round">
<line x1="130.2" y1="142.4" x2="130.2" y2="140.8" opacity="1.0" stroke="rgb(0,0,0)"  stroke-width="1.0"/>
<line x1="124.1" y1="143.1" x2="124.1" y2="140.2" opacity="1.0" stroke="rgb(0,0,0)"  stroke-width="1.0"/>
<line x1="117.9" y1="143.7" x2="117.9" y2="139.5" opacity="1.0" stroke="rgb(0,0,0)"  stroke-width="1.0"/>
<line x1="111.7" y1="144.3" x2="111.7" y2="138.9" opacity="1.0" stroke="rgb(0,0,0)"  stroke-width="1.0"/>
<line x1="105.5" y1="145.0" x2="105.5" y2="138.3" opacity="1.0" stroke="rgb(0,0,0)"  stroke-width="1.0"/>
<line x1="99.3" y1="145.6" x2="99.3" y2="137.6" opacity="1.0" stroke="rgb(0,0,0)"  stroke-width="1.0"/>
<line x1="130.2" y1="75.5" x2="130.2" y2="73.9" opacity="1.0" stroke="rgb(0,0,0)"  stroke-width="1.0"/>
<line x1="124.1" y1="76.2" x2="124.1" y2="73.3" opacity="1.0" stroke="rgb(0,0,0)"  stroke-width="1.0"/>
<line x1="117.9" y1="76.8" x2="117.9" y2="72.6" opacity="1.0" stroke="rgb(0,0,0)"  stroke-width="1.0"/>
<line x1="111.7" y1="77.4" x2="111.7" y2="72.0" opacity="1.0" stroke="rgb(0,0,0)"  stroke-width="1.0"/>
<line x1="105.5" y1="78.1" x2="105.5" y2="71.4" opacity="1.0" stroke="rgb(0,0,0)"  stroke-width="1.0"/>
<line x1="99.3" y1="78.7" x2="99.3" y2="70.7" opacity="1.0" stroke="rgb(0,0,0)"  stroke-width="1.0"/>
<line x1="178.6" y1="69.7" x2="180.0" y2="70.5" opacity="1.0" stroke="rgb(0,0,0)"  stroke-width="1.0"/>
<line x1="180.2" y1="65.6" x2="182.7" y2="67.1" opacity="1.0" stroke="rgb(0,0,0)"  stroke-width="1.0"/>
<line x1="181.7" y1="61.6" x2="185.4" y2="63.7" opacity="1.0" stroke="rgb(0,0,0)"  stroke-width="1.0"/>
<line x1="183.3" y1="57.5" x2="188.0" y2="60.2" opacity="1.0" stroke="rgb(0,0,0)"  stroke-width="1.0"/>
<line x1="184.9" y1="53.5" x2="190.7" y2="56.8" opacity="1.0" stroke="rgb(0,0,0)"  stroke-width="1.0"/>
<line x1="186.5" y1="49.5" x2="193.4" y2="53.4" opacity="1.0" stroke="rgb(0,0,0)"  stroke-width="1.0"/>
<polygon points="99.330867 74.711126 82.401283 53.553877 89.317088 49.532480 " stroke-width="2.000000" fill="rgb(0,0,0)"  stroke="rgb(0,0,0)" />
<line x1="128.3" y1="124.9" x2="153.2" y2="139.3" opacity="1.0" stroke="rgb(0,0,0)"  stroke-width="2.0"/>
<line x1="180.0" y1="145.9" x2="178.6" y2="146.7" opacity="1.0" stroke="rgb(0,0,0)"  stroke-width="1.0"/>
<line x1="182.7" y1="149.2" x2="180.2" y2="150.7" opacity="1.0" stroke="rgb(0,0,0)"  stroke-width="1.0"/>
<line x1="185.4" y1="152.6" x2="181.8" y2="154.7" opacity="1.0" stroke="rgb(0,0,0)"  stroke-width="1.0"/>
<line x1="188.1" y1="156.0" x2="183.4" y2="158.7" opacity="1.0" stroke="rgb(0,0,0)"  stroke-width="1.0"/>
<line x1="190.8" y1="159.4" x2="185.0" y2="162.8" opacity="1.0" stroke="rgb(0,0,0)"  stroke-width="1.0"/>
<line x1="193.6" y1="162.8" x2="186.6" y2="166.8" opacity="1.0" stroke="rgb(0,0,0)"  stroke-width="1.0"/>
<line x1="80.0" y1="108.7" x2="53.0" y2="108.9" opacity="1.0" stroke="rgb(0,0,0)"  stroke-width="2.0"/>
<polygon points="99.330867 141.624227 89.483672 166.868489 82.541446 162.892875 " stroke-width="2.000000" fill="rgb(0,0,0)"  stroke="rgb(0,0,0)" />
<line x1="128.3" y1="91.4" x2="153.2" y2="77.0" opacity="1.0" stroke="rgb(0,0,0)"  stroke-width="2.0"/>
<line x1="80.0" y1="108.7" x2="66.6" y2="132.1" opacity="1.0" stroke="rgb(0,0,0)"  stroke-width="2.0"/>
<line x1="196.0" y1="107.7" x2="176.6" y2="74.7" opacity="1.0" stroke="rgb(0,0,0)"  stroke-width="2.0"/>
<line x1="176.6" y1="74.7" x2="138.0" y2="74.7" opacity="1.0" stroke="rgb(0,0,0)"  stroke-width="2.0"/>
<line x1="138.0" y1="74.7" x2="138.0" y2="141.6" opacity="1.0" stroke="rgb(0,0,0)"  stroke-width="2.0"/>
<line x1="138.0" y1="141.6" x2="176.6" y2="141.6" opacity="1.0" stroke="rgb(0,0,0)"  stroke-width="2.0"/>
<line x1="176.6" y1="141.6" x2="196.0" y2="107.7" opacity="1.0" stroke="rgb(0,0,0)"  stroke-width="2.0"/>
<line x1="99.3" y1="74.7" x2="138.0" y2="74.7" opacity="1.0" stroke="rgb(0,0,0)"  stroke-width="2.0"/>
<line x1="138.0" y1="141.6" x2="99.3" y2="141.6" opacity="1.0" stroke="rgb(0,0,0)"  stroke-width="2.0"/>
<line x1="99.3" y1="141.6" x2="80.0" y2="108.7" opacity="1.0" stroke="rgb(0,0,0)"  stroke-width="2.0"/>
<line x1="80.0" y1="108.7" x2="99.3" y2="74.7" opacity="1.0" stroke="rgb(0,0,0)"  stroke-width="2.0"/>
<line x1="99.3" y1="74.7" x2="128.3" y2="91.4" opacity="1.0" stroke="rgb(0,0,0)"  stroke-width="2.0"/>
<line x1="128.3" y1="91.4" x2="128.3" y2="124.9" opacity="1.0" stroke="rgb(0,0,0)"  stroke-width="2.0"/>
<line x1="121.1" y1="97.4" x2="121.1" y2="118.9" opacity="1.0" stroke="rgb(0,0,0)"  stroke-width="2.0"/>
<line x1="128.3" y1="124.9" x2="99.3" y2="141.6" opacity="1.0" stroke="rgb(0,0,0)"  stroke-width="2.0"/>
<text x="158.491595" y="78.547113" fill="rgb(30,239,30)"  stroke="rgb(30,239,30)" stroke-width="1" font-size="16" >Cl</text>
<text x="22.000000" y="116.942228" fill="rgb(30,239,30)"  stroke="rgb(30,239,30)" stroke-width="1" font-size="16" >Cl</text>
<text x="42.213674" y="151.441935" fill="rgb(30,239,30)"  stroke="rgb(30,239,30)" stroke-width="1" font-size="16" >Cl</text>
<text x="61.452795" y="184.335353" fill="rgb(30,239,30)"  stroke="rgb(30,239,30)" stroke-width="1" font-size="16" >Cl</text>
<text x="158.491595" y="153.788241" fill="rgb(30,239,30)"  stroke="rgb(30,239,30)" stroke-width="1" font-size="16" >Cl</text>
<text x="61.223879" y="48.132100" fill="rgb(30,239,30)"  stroke="rgb(30,239,30)" stroke-width="1" font-size="16" >Cl</text>
<text x="190.501108" y="48.000000" fill="rgb(30,239,30)"  stroke="rgb(30,239,30)" stroke-width="1" font-size="16" >Cl</text>
<text x="190.730024" y="184.203254" fill="rgb(30,239,30)"  stroke="rgb(30,239,30)" stroke-width="1" font-size="16" >Cl</text>
</svg>
</g>
</svg>