<?xml version="1.0"?>
<svg version="1.1" id="topsvg"
xmlns="http://www.w3.org/2000/svg" xmlns:xlink="http://www.w3.org/1999/xlink"
xmlns:cml="http://www.xml-cml.org/schema" x="0" y="0" width="200px" height="200px" viewBox="0 0 100 100">
<title>eedecac808d1e1d7c329ddc767cdbc98 - Open Babel Depiction</title>
<rect x="0" y="0" width="100" height="100" fill="white"/>
<g transform="translate(0,0)">
<svg width="100" height="100" x="0" y="0" viewBox="0 0 242.331 216.335"
font-family="sans-serif" stroke="rgb(0,0,0)" stroke-width="2"  stroke-linecap="round">
<line x1="81.6" y1="87.4" x2="82.4" y2="88.8" opacity="1.0" stroke="rgb(0,0,0)"  stroke-width="1.0"/>
<line x1="85.9" y1="84.2" x2="87.3" y2="86.7" opacity="1.0" stroke="rgb(0,0,0)"  stroke-width="1.0"/>
<line x1="90.2" y1="80.9" x2="92.3" y2="84.5" opacity="1.0" stroke="rgb(0,0,0)"  stroke-width="1.0"/>
<line x1="94.5" y1="77.7" x2="97.2" y2="82.4" opacity="1.0" stroke="rgb(0,0,0)"  stroke-width="1.0"/>
<line x1="98.8" y1="74.5" x2="102.2" y2="80.3" opacity="1.0" stroke="rgb(0,0,0)"  stroke-width="1.0"/>
<line x1="103.2" y1="71.2" x2="107.2" y2="78.2" opacity="1.0" stroke="rgb(0,0,0)"  stroke-width="1.0"/>
<polygon points="105.160728 141.624227 95.313533 166.868489 88.371308 162.892875 " stroke-width="2.000000" fill="rgb(0,0,0)"  stroke="rgb(0,0,0)" />
<line x1="136.1" y1="142.4" x2="136.1" y2="140.8" opacity="1.0" stroke="rgb(0,0,0)"  stroke-width="1.0"/>
<line x1="129.9" y1="143.1" x2="129.9" y2="140.2" opacity="1.0" stroke="rgb(0,0,0)"  stroke-width="1.0"/>
<line x1="123.7" y1="143.7" x2="123.7" y2="139.5" opacity="1.0" stroke="rgb(0,0,0)"  stroke-width="1.0"/>
<line x1="117.5" y1="144.3" x2="117.5" y2="138.9" opacity="1.0" stroke="rgb(0,0,0)"  stroke-width="1.0"/>
<line x1="111.3" y1="145.0" x2="111.3" y2="138.3" opacity="1.0" stroke="rgb(0,0,0)"  stroke-width="1.0"/>
<line x1="105.2" y1="145.6" x2="105.2" y2="137.6" opacity="1.0" stroke="rgb(0,0,0)"  stroke-width="1.0"/>
<line x1="136.1" y1="75.5" x2="136.1" y2="73.9" opacity="1.0" stroke="rgb(0,0,0)"  stroke-width="1.0"/>
<line x1="129.9" y1="76.2" x2="129.9" y2="73.3" opacity="1.0" stroke="rgb(0,0,0)"  stroke-width="1.0"/>
<line x1="123.7" y1="76.8" x2="123.7" y2="72.6" opacity="1.0" stroke="rgb(0,0,0)"  stroke-width="1.0"/>
<line x1="117.5" y1="77.4" x2="117.5" y2="72.0" opacity="1.0" stroke="rgb(0,0,0)"  stroke-width="1.0"/>
<line x1="111.3" y1="78.1" x2="111.3" y2="71.4" opacity="1.0" stroke="rgb(0,0,0)"  stroke-width="1.0"/>
<line x1="105.2" y1="78.7" x2="105.2" y2="70.7" opacity="1.0" stroke="rgb(0,0,0)"  stroke-width="1.0"/>
<line x1="85.8" y1="108.7" x2="58.8" y2="108.9" opacity="1.0" stroke="rgb(0,0,0)"  stroke-width="2.0"/>
<polygon points="182.452898 74.711126 192.300093 49.466864 199.242318 53.442479 " stroke-width="2.000000" fill="rgb(0,0,0)"  stroke="rgb(0,0,0)" />
<line x1="82.4" y1="127.5" x2="81.6" y2="128.9" opacity="1.0" stroke="rgb(0,0,0)"  stroke-width="1.0"/>
<line x1="87.3" y1="129.7" x2="85.9" y2="132.2" opacity="1.0" stroke="rgb(0,0,0)"  stroke-width="1.0"/>
<line x1="92.3" y1="131.8" x2="90.2" y2="135.4" opacity="1.0" stroke="rgb(0,0,0)"  stroke-width="1.0"/>
<line x1="97.2" y1="133.9" x2="94.5" y2="138.6" opacity="1.0" stroke="rgb(0,0,0)"  stroke-width="1.0"/>
<line x1="102.2" y1="136.0" x2="98.8" y2="141.9" opacity="1.0" stroke="rgb(0,0,0)"  stroke-width="1.0"/>
<line x1="107.2" y1="138.2" x2="103.2" y2="145.1" opacity="1.0" stroke="rgb(0,0,0)"  stroke-width="1.0"/>
<polygon points="105.160728 74.711126 88.231144 53.553877 95.146949 49.532480 " stroke-width="2.000000" fill="rgb(0,0,0)"  stroke="rgb(0,0,0)" />
<line x1="76.2" y1="124.9" x2="51.3" y2="139.3" opacity="1.0" stroke="rgb(0,0,0)"  stroke-width="2.0"/>
<line x1="85.8" y1="108.7" x2="62.4" y2="95.3" opacity="1.0" stroke="rgb(0,0,0)"  stroke-width="2.0"/>
<line x1="76.2" y1="91.4" x2="51.3" y2="77.0" opacity="1.0" stroke="rgb(0,0,0)"  stroke-width="2.0"/>
<line x1="201.8" y1="107.7" x2="182.5" y2="74.7" opacity="1.0" stroke="rgb(0,0,0)"  stroke-width="2.0"/>
<line x1="182.5" y1="74.7" x2="143.8" y2="74.7" opacity="1.0" stroke="rgb(0,0,0)"  stroke-width="2.0"/>
<line x1="143.8" y1="74.7" x2="143.8" y2="141.6" opacity="1.0" stroke="rgb(0,0,0)"  stroke-width="2.0"/>
<line x1="143.8" y1="141.6" x2="182.5" y2="141.6" opacity="1.0" stroke="rgb(0,0,0)"  stroke-width="2.0"/>
<line x1="182.5" y1="141.6" x2="201.8" y2="107.7" opacity="1.0" stroke="rgb(0,0,0)"  stroke-width="2.0"/>
<line x1="143.8" y1="74.7" x2="105.2" y2="74.7" opacity="1.0" stroke="rgb(0,0,0)"  stroke-width="2.0"/>
<line x1="105.2" y1="74.7" x2="85.8" y2="108.7" opacity="1.0" stroke="rgb(0,0,0)"  stroke-width="2.0"/>
<line x1="85.8" y1="108.7" x2="105.2" y2="141.6" opacity="1.0" stroke="rgb(0,0,0)"  stroke-width="2.0"/>
<line x1="105.2" y1="141.6" x2="143.8" y2="141.6" opacity="1.0" stroke="rgb(0,0,0)"  stroke-width="2.0"/>
<line x1="76.2" y1="124.9" x2="76.2" y2="91.4" opacity="1.0" stroke="rgb(0,0,0)"  stroke-width="2.0"/>
<line x1="76.2" y1="91.4" x2="105.2" y2="74.7" opacity="1.0" stroke="rgb(0,0,0)"  stroke-width="2.0"/>
<line x1="105.2" y1="141.6" x2="76.2" y2="124.9" opacity="1.0" stroke="rgb(0,0,0)"  stroke-width="2.0"/>
<text x="22.000000" y="78.547113" fill="rgb(30,239,30)"  stroke="rgb(30,239,30)" stroke-width="1" font-size="16" >Cl</text>
<text x="22.000000" y="153.788241" fill="rgb(30,239,30)"  stroke="rgb(30,239,30)" stroke-width="1" font-size="16" >Cl</text>
<text x="33.048181" y="96.922036" fill="rgb(30,239,30)"  stroke="rgb(30,239,30)" stroke-width="1" font-size="16" >Cl</text>
<text x="27.829861" y="116.942228" fill="rgb(30,239,30)"  stroke="rgb(30,239,30)" stroke-width="1" font-size="16" >Cl</text>
<text x="67.053741" y="48.132100" fill="rgb(30,239,30)"  stroke="rgb(30,239,30)" stroke-width="1" font-size="16" >Cl</text>
<text x="67.282657" y="184.335353" fill="rgb(30,239,30)"  stroke="rgb(30,239,30)" stroke-width="1" font-size="16" >Cl</text>
<text x="196.330969" y="48.000000" fill="rgb(30,239,30)"  stroke="rgb(30,239,30)" stroke-width="1" font-size="16" >Cl</text>
</svg>
</g>
</svg>